<?xml version="1.0"?>
<svg font-family="Arial,Helvetica,sans-serif" font-size="10" height="300" version="1.1" width="540" xmlns:xlink="http://www.w3.org/1999/xlink" xmlns="http://www.w3.org/2000/svg"><g><rect fill="#ffff03" height="10.00" width="5.00" x="430.00" y="232.00" /><rect fill="#efff0f" height="10.00" width="5.00" x="434.75" y="232.00" /><rect fill="#e0fd1b" height="10.00" width="5.00" x="439.50" y="232.00" /><rect fill="#cffb28" height="10.00" width="5.00" x="444.25" y="232.00" /><rect fill="#bef735" height="10.00" width="5.00" x="449.00" y="232.00" /><rect fill="#adf342" height="10.00" width="5.00" x="453.75" y="232.00" /><rect fill="#9bee4f" height="10.00" width="5.00" x="458.50" y="232.00" /><rect fill="#8ae85d" height="10.00" width="5.00" x="463.25" y="232.00" /><rect fill="#79e16a" height="10.00" width="5.00" x="468.00" y="232.00" /><rect fill="#69da77" height="10.00" width="5.00" x="472.75" y="232.00" /><rect fill="#59d184" height="10.00" width="5.00" x="477.50" y="232.00" /><rect fill="#4ac990" height="10.00" width="5.00" x="482.25" y="232.00" /><rect fill="#3cbf9c" height="10.00" width="5.00" x="487.00" y="232.00" /><rect fill="#2fb5a7" height="10.00" width="5.00" x="491.75" y="232.00" /><rect fill="#24abb2" height="10.00" width="5.00" x="496.50" y="232.00" /><rect fill="#1aa0bc" height="10.00" width="5.00" x="501.25" y="232.00" /><rect fill="#1195c5" height="10.00" width="5.00" x="506.00" y="232.00" /><rect fill="#0a8acd" height="10.00" width="5.00" x="510.75" y="232.00" /><rect fill="#057fd4" height="10.00" width="5.00" x="515.50" y="232.00" /><rect fill="#0274da" height="10.00" width="5.00" x="520.25" y="232.00" /><rect fill="#0069df" height="10.00" width="5.00" x="525.00" y="232.00" /><text x="430.00" y="254.00">1</text><text text-anchor="end" x="530.00" y="254.00">28</text></g><g><text font-size="20" x="50.00" y="30.00">thi.ng/geom (develop branch)</text><text x="50.00" y="240.00">Commits per weekday / hour of day, min: 1, max: 28, total: 1192</text><text x="50.00" y="254.00">Period: 2013-08-12 18:49 - 2016-11-21 23:16</text><text x="50.00" y="282.00">Generated by: http://thi.ng/punchcard</text></g><g><g><circle cx="60.00" cy="60.00" fill="#23aab3" r="10.0" /><circle cx="80.00" cy="60.00" fill="#dcfd1e" r="10.0" /><circle cx="100.00" cy="60.00" fill="#dcfd1e" r="10.0" /><circle cx="120.00" cy="60.00" fill="#e8fe15" r="10.0" /><circle cx="160.00" cy="60.00" fill="#ffff03" r="10.0" /><circle cx="180.00" cy="60.00" fill="#ffff03" r="10.0" /><circle cx="280.00" cy="60.00" fill="#d0fb27" r="10.0" /><circle cx="300.00" cy="60.00" fill="#5fd57f" r="10.0" /><circle cx="320.00" cy="60.00" fill="#6bda76" r="10.0" /><circle cx="340.00" cy="60.00" fill="#6bda76" r="10.0" /><circle cx="360.00" cy="60.00" fill="#aaf245" r="10.0" /><circle cx="380.00" cy="60.00" fill="#49c891" r="10.0" /><circle cx="400.00" cy="60.00" fill="#35b9a3" r="10.0" /><circle cx="420.00" cy="60.00" fill="#53ce88" r="10.0" /><circle cx="440.00" cy="60.00" fill="#b6f63b" r="10.0" /><circle cx="460.00" cy="60.00" fill="#d0fb27" r="10.0" /><circle cx="480.00" cy="60.00" fill="#aaf245" r="10.0" /><circle cx="500.00" cy="60.00" fill="#c3f831" r="10.0" /><circle cx="520.00" cy="60.00" fill="#83e562" r="10.0" /><circle cx="60.00" cy="80.00" fill="#90ea58" r="10.0" /><circle cx="80.00" cy="80.00" fill="#53ce88" r="10.0" /><circle cx="100.00" cy="80.00" fill="#9dee4e" r="10.0" /><circle cx="120.00" cy="80.00" fill="#5fd57f" r="10.0" /><circle cx="180.00" cy="80.00" fill="#ffff03" r="10.0" /><circle cx="220.00" cy="80.00" fill="#dcfd1e" r="10.0" /><circle cx="240.00" cy="80.00" fill="#dcfd1e" r="10.0" /><circle cx="260.00" cy="80.00" fill="#c3f831" r="10.0" /><circle cx="280.00" cy="80.00" fill="#9dee4e" r="10.0" /><circle cx="300.00" cy="80.00" fill="#83e562" r="10.0" /><circle cx="320.00" cy="80.00" fill="#23aab3" r="10.0" /><circle cx="340.00" cy="80.00" fill="#1ca2ba" r="10.0" /><circle cx="360.00" cy="80.00" fill="#1ca2ba" r="10.0" /><circle cx="380.00" cy="80.00" fill="#9dee4e" r="10.0" /><circle cx="400.00" cy="80.00" fill="#dcfd1e" r="10.0" /><circle cx="420.00" cy="80.00" fill="#0682d2" r="10.0" /><circle cx="440.00" cy="80.00" fill="#dcfd1e" r="10.0" /><circle cx="460.00" cy="80.00" fill="#dcfd1e" r="10.0" /><circle cx="480.00" cy="80.00" fill="#d0fb27" r="10.0" /><circle cx="500.00" cy="80.00" fill="#49c891" r="10.0" /><circle cx="520.00" cy="80.00" fill="#0069df" r="10.0" /><circle cx="60.00" cy="100.00" fill="#83e562" r="10.0" /><circle cx="80.00" cy="100.00" fill="#0069df" r="10.0" /><circle cx="100.00" cy="100.00" fill="#9dee4e" r="10.0" /><circle cx="120.00" cy="100.00" fill="#e8fe15" r="10.0" /><circle cx="180.00" cy="100.00" fill="#f3ff0c" r="10.0" /><circle cx="200.00" cy="100.00" fill="#ffff03" r="10.0" /><circle cx="220.00" cy="100.00" fill="#c3f831" r="10.0" /><circle cx="240.00" cy="100.00" fill="#b6f63b" r="10.0" /><circle cx="260.00" cy="100.00" fill="#aaf245" r="10.0" /><circle cx="280.00" cy="100.00" fill="#d0fb27" r="10.0" /><circle cx="300.00" cy="100.00" fill="#5fd57f" r="10.0" /><circle cx="320.00" cy="100.00" fill="#b6f63b" r="10.0" /><circle cx="340.00" cy="100.00" fill="#1ca2ba" r="10.0" /><circle cx="360.00" cy="100.00" fill="#9dee4e" r="10.0" /><circle cx="380.00" cy="100.00" fill="#aaf245" r="10.0" /><circle cx="400.00" cy="100.00" fill="#d0fb27" r="10.0" /><circle cx="420.00" cy="100.00" fill="#77e06c" r="10.0" /><circle cx="440.00" cy="100.00" fill="#e8fe15" r="10.0" /><circle cx="460.00" cy="100.00" fill="#aaf245" r="10.0" /><circle cx="480.00" cy="100.00" fill="#90ea58" r="10.0" /><circle cx="500.00" cy="100.00" fill="#e8fe15" r="10.0" /><circle cx="520.00" cy="100.00" fill="#77e06c" r="10.0" /><circle cx="60.00" cy="120.00" fill="#d0fb27" r="10.0" /><circle cx="80.00" cy="120.00" fill="#9dee4e" r="10.0" /><circle cx="100.00" cy="120.00" fill="#e8fe15" r="10.0" /><circle cx="120.00" cy="120.00" fill="#f3ff0c" r="10.0" /><circle cx="140.00" cy="120.00" fill="#f3ff0c" r="10.0" /><circle cx="240.00" cy="120.00" fill="#e8fe15" r="10.0" /><circle cx="260.00" cy="120.00" fill="#e8fe15" r="10.0" /><circle cx="280.00" cy="120.00" fill="#e8fe15" r="10.0" /><circle cx="300.00" cy="120.00" fill="#6bda76" r="10.0" /><circle cx="320.00" cy="120.00" fill="#83e562" r="10.0" /><circle cx="340.00" cy="120.00" fill="#6bda76" r="10.0" /><circle cx="360.00" cy="120.00" fill="#aaf245" r="10.0" /><circle cx="380.00" cy="120.00" fill="#83e562" r="10.0" /><circle cx="400.00" cy="120.00" fill="#159ac1" r="10.0" /><circle cx="420.00" cy="120.00" fill="#b6f63b" r="10.0" /><circle cx="440.00" cy="120.00" fill="#f3ff0c" r="10.0" /><circle cx="460.00" cy="120.00" fill="#ffff03" r="10.0" /><circle cx="480.00" cy="120.00" fill="#e8fe15" r="10.0" /><circle cx="500.00" cy="120.00" fill="#aaf245" r="10.0" /><circle cx="520.00" cy="120.00" fill="#9dee4e" r="10.0" /><circle cx="60.00" cy="140.00" fill="#49c891" r="10.0" /><circle cx="80.00" cy="140.00" fill="#ffff03" r="10.0" /><circle cx="100.00" cy="140.00" fill="#c3f831" r="10.0" /><circle cx="120.00" cy="140.00" fill="#f3ff0c" r="10.0" /><circle cx="140.00" cy="140.00" fill="#f3ff0c" r="10.0" /><circle cx="220.00" cy="140.00" fill="#d0fb27" r="10.0" /><circle cx="240.00" cy="140.00" fill="#e8fe15" r="10.0" /><circle cx="260.00" cy="140.00" fill="#90ea58" r="10.0" /><circle cx="280.00" cy="140.00" fill="#83e562" r="10.0" /><circle cx="300.00" cy="140.00" fill="#83e562" r="10.0" /><circle cx="320.00" cy="140.00" fill="#77e06c" r="10.0" /><circle cx="340.00" cy="140.00" fill="#5fd57f" r="10.0" /><circle cx="360.00" cy="140.00" fill="#b6f63b" r="10.0" /><circle cx="380.00" cy="140.00" fill="#77e06c" r="10.0" /><circle cx="400.00" cy="140.00" fill="#c3f831" r="10.0" /><circle cx="420.00" cy="140.00" fill="#9dee4e" r="10.0" /><circle cx="440.00" cy="140.00" fill="#aaf245" r="10.0" /><circle cx="460.00" cy="140.00" fill="#f3ff0c" r="10.0" /><circle cx="500.00" cy="140.00" fill="#6bda76" r="10.0" /><circle cx="520.00" cy="140.00" fill="#f3ff0c" r="10.0" /><circle cx="60.00" cy="160.00" fill="#ffff03" r="10.0" /><circle cx="80.00" cy="160.00" fill="#2cb2ab" r="10.0" /><circle cx="100.00" cy="160.00" fill="#c3f831" r="10.0" /><circle cx="120.00" cy="160.00" fill="#dcfd1e" r="10.0" /><circle cx="200.00" cy="160.00" fill="#d0fb27" r="10.0" /><circle cx="240.00" cy="160.00" fill="#ffff03" r="10.0" /><circle cx="260.00" cy="160.00" fill="#e8fe15" r="10.0" /><circle cx="280.00" cy="160.00" fill="#83e562" r="10.0" /><circle cx="300.00" cy="160.00" fill="#90ea58" r="10.0" /><circle cx="320.00" cy="160.00" fill="#d0fb27" r="10.0" /><circle cx="340.00" cy="160.00" fill="#e8fe15" r="10.0" /><circle cx="360.00" cy="160.00" fill="#3ec19a" r="10.0" /><circle cx="380.00" cy="160.00" fill="#e8fe15" r="10.0" /><circle cx="400.00" cy="160.00" fill="#3ec19a" r="10.0" /><circle cx="420.00" cy="160.00" fill="#77e06c" r="10.0" /><circle cx="440.00" cy="160.00" fill="#dcfd1e" r="10.0" /><circle cx="460.00" cy="160.00" fill="#d0fb27" r="10.0" /><circle cx="480.00" cy="160.00" fill="#dcfd1e" r="10.0" /><circle cx="500.00" cy="160.00" fill="#f3ff0c" r="10.0" /><circle cx="520.00" cy="160.00" fill="#b6f63b" r="10.0" /><circle cx="60.00" cy="180.00" fill="#9dee4e" r="10.0" /><circle cx="80.00" cy="180.00" fill="#9dee4e" r="10.0" /><circle cx="100.00" cy="180.00" fill="#e8fe15" r="10.0" /><circle cx="120.00" cy="180.00" fill="#ffff03" r="10.0" /><circle cx="240.00" cy="180.00" fill="#ffff03" r="10.0" /><circle cx="280.00" cy="180.00" fill="#e8fe15" r="10.0" /><circle cx="300.00" cy="180.00" fill="#c3f831" r="10.0" /><circle cx="320.00" cy="180.00" fill="#9dee4e" r="10.0" /><circle cx="340.00" cy="180.00" fill="#c3f831" r="10.0" /><circle cx="360.00" cy="180.00" fill="#53ce88" r="10.0" /><circle cx="380.00" cy="180.00" fill="#ffff03" r="10.0" /><circle cx="400.00" cy="180.00" fill="#23aab3" r="10.0" /><circle cx="420.00" cy="180.00" fill="#1ca2ba" r="10.0" /><circle cx="440.00" cy="180.00" fill="#6bda76" r="10.0" /><circle cx="460.00" cy="180.00" fill="#dcfd1e" r="10.0" /><circle cx="480.00" cy="180.00" fill="#90ea58" r="10.0" /><circle cx="500.00" cy="180.00" fill="#3ec19a" r="10.0" /><circle cx="520.00" cy="180.00" fill="#83e562" r="10.0" /></g><g stroke="black"><line x1="50.00" x2="50.00" y1="200.00" y2="210.00" /><line x1="170.00" x2="170.00" y1="200.00" y2="210.00" /><line x1="290.00" x2="290.00" y1="200.00" y2="210.00" /><line x1="410.00" x2="410.00" y1="200.00" y2="210.00" /><line x1="530.00" x2="530.00" y1="200.00" y2="210.00" /><line x1="70.00" x2="70.00" y1="200.00" y2="205.00" /><line x1="90.00" x2="90.00" y1="200.00" y2="205.00" /><line x1="110.00" x2="110.00" y1="200.00" y2="205.00" /><line x1="130.00" x2="130.00" y1="200.00" y2="205.00" /><line x1="150.00" x2="150.00" y1="200.00" y2="205.00" /><line x1="190.00" x2="190.00" y1="200.00" y2="205.00" /><line x1="210.00" x2="210.00" y1="200.00" y2="205.00" /><line x1="230.00" x2="230.00" y1="200.00" y2="205.00" /><line x1="250.00" x2="250.00" y1="200.00" y2="205.00" /><line x1="270.00" x2="270.00" y1="200.00" y2="205.00" /><line x1="310.00" x2="310.00" y1="200.00" y2="205.00" /><line x1="330.00" x2="330.00" y1="200.00" y2="205.00" /><line x1="350.00" x2="350.00" y1="200.00" y2="205.00" /><line x1="370.00" x2="370.00" y1="200.00" y2="205.00" /><line x1="390.00" x2="390.00" y1="200.00" y2="205.00" /><line x1="430.00" x2="430.00" y1="200.00" y2="205.00" /><line x1="450.00" x2="450.00" y1="200.00" y2="205.00" /><line x1="470.00" x2="470.00" y1="200.00" y2="205.00" /><line x1="490.00" x2="490.00" y1="200.00" y2="205.00" /><line x1="510.00" x2="510.00" y1="200.00" y2="205.00" /><g fill="black" font-family="Arial, sans-serif" font-size="10" stroke="none" text-anchor="start"><text x="50.00" y="220.00">00:00</text><text x="170.00" y="220.00">06:00</text><text x="290.00" y="220.00">12:00</text><text x="410.00" y="220.00">18:00</text><text x="530.00" y="220.00"></text></g><line x1="50.00" x2="530.00" y1="200.00" y2="200.00" /></g><g stroke="black"><line x1="40.00" x2="30.00" y1="50.00" y2="50.00" /><line x1="40.00" x2="30.00" y1="70.00" y2="70.00" /><line x1="40.00" x2="30.00" y1="90.00" y2="90.00" /><line x1="40.00" x2="30.00" y1="110.00" y2="110.00" /><line x1="40.00" x2="30.00" y1="130.00" y2="130.00" /><line x1="40.00" x2="30.00" y1="150.00" y2="150.00" /><line x1="40.00" x2="30.00" y1="170.00" y2="170.00" /><line x1="40.00" x2="30.00" y1="190.00" y2="190.00" /><g fill="black" font-family="Arial, sans-serif" font-size="10" stroke="none" text-anchor="middle"><text x="20.00" y="64.00">SUN</text><text x="20.00" y="84.00">MON</text><text x="20.00" y="104.00">TUE</text><text x="20.00" y="124.00">WED</text><text x="20.00" y="144.00">THU</text><text x="20.00" y="164.00">FRI</text><text x="20.00" y="184.00">SAT</text><text x="20.00" y="204.00"></text></g><line x1="40.00" x2="40.00" y1="50.00" y2="190.00" /></g></g></svg>